<svg id="Слой_1" data-name="Слой 1" xmlns="http://www.w3.org/2000/svg" viewBox="0 0 566.93 566.93"><defs><style>.cls-1{fill:#232420;}.cls-2{fill:#467781;}.cls-3{fill:#d3d5cb;}.cls-4{fill:#d88a80;}</style></defs><title>vt-logo</title><rect class="cls-1" x="-7.63" y="-25.63" width="584.31" height="614"/><path class="cls-2" d="M333.59,543.65l-156,10.25.12-13.23,82.78-5.54-82.66-6.94.13-13.23,155.81,13.23Z"/><path class="cls-2" d="M333.94,507.14,178,505.65l.15-15.65,155.92,1.49Z"/><path class="cls-2" d="M334.4,458.71l-78.68,7.07,78.61.75-.15,15.65-155.92-1.49.15-15.65,61.66.59-61.59-8.23.15-15.65L248,451l86.52-7.75Z"/><path class="cls-2" d="M334.64,433.93l-155.92-1.49.15-15.65,155.92,1.49Z"/><path class="cls-2" d="M356.47,555.45l1.18-123.35-10.32-.1.13-13.75,34.23.32-.13,13.76-10.32-.1-1.18,123.35Z"/><path class="cls-2" d="M405.28,555.91a17.12,17.12,0,0,1-16.88-16l1-105.16c.75-9.33,8-15.49,17.52-15.89A17.15,17.15,0,0,1,423.64,435l-1,105.16a17.08,17.08,0,0,1-15.88,15.74Zm3.77-17L410,436a3.47,3.47,0,0,0-3.41-3.47,3.36,3.36,0,0,0-3.47,3.41l-1,102.87a3.46,3.46,0,0,0,3.4,3.47A3.58,3.58,0,0,0,409.05,538.91Z"/><path class="cls-2" d="M430.83,539.12,432,419.05l13.76.13-1.15,120.07a3.46,3.46,0,0,0,3.41,3.47,3.57,3.57,0,0,0,3.47-3.4l1.15-120.07,13.59.13-1.15,120.07a17.12,17.12,0,0,1-34.23-.33Z"/><path class="cls-2" d="M490.13,556.72a17.13,17.13,0,0,1-16.89-16.05l1-105.16c.74-9.33,8-15.49,17.51-15.89a17.14,17.14,0,0,1,16.72,16.22L508.31,454l-13.6-.13.16-17a3.44,3.44,0,1,0-6.88-.06l-1,102.87a3.44,3.44,0,0,0,3.25,3.47,3.5,3.5,0,0,0,3.63-3.41l.63-65.68,13.59.13L507.48,541a17.08,17.08,0,0,1-15.88,15.74Z"/><path class="cls-2" d="M536.15,557.16l.79-82.88-6.88-.07-.79,82.89L515.51,557l1.31-137.11,13.76.13-.39,40.63,6.88.06.39-40.62,13.6.13-1.31,137.1Z"/><path class="cls-3" d="M427.41,178.87,415.67,22.94H428.9l6.34,82.72,6.14-82.72h13.23L442.87,178.87Z"/><path class="cls-3" d="M463.92,178.87V22.94h15.65V178.87Z"/><path class="cls-3" d="M512.36,178.87l-7.83-78.62v78.62H488.88V22.94h15.65V84.61l7.64-61.67h15.65l-8.57,69.49,8.57,86.44Z"/><path class="cls-3" d="M537.13,178.87V22.94h15.65V178.87Z"/><path class="cls-3" d="M415.83,201.86H539.18V191.54h13.76v34.23H539.18V215.45H415.83Z"/><path class="cls-3" d="M415.83,250.67a17.13,17.13,0,0,1,15.89-17H536.89c9.34.65,15.56,7.86,16.05,17.36a17.13,17.13,0,0,1-16.05,16.87H431.72a17.07,17.07,0,0,1-15.89-15.72Zm17,3.61H535.74a3.46,3.46,0,0,0,3.44-3.44,3.35,3.35,0,0,0-3.44-3.44H432.87a3.46,3.46,0,0,0-3.44,3.44A3.58,3.58,0,0,0,432.87,254.28Z"/><path class="cls-3" d="M432.87,276.06H552.94v13.76H432.87a3.46,3.46,0,0,0-3.44,3.44,3.58,3.58,0,0,0,3.44,3.44H552.94v13.6H432.87a17.12,17.12,0,0,1,0-34.24Z"/><path class="cls-3" d="M415.83,335.52a17.14,17.14,0,0,1,15.89-17H536.89c9.34.66,15.56,7.87,16.05,17.37a17.13,17.13,0,0,1-16.05,16.87H518.71v-13.6h17a3.63,3.63,0,0,0,3.61-3.6,3.59,3.59,0,0,0-3.61-3.28H432.87a3.43,3.43,0,0,0-3.44,3.28,3.49,3.49,0,0,0,3.44,3.6h65.69v13.6H431.72A17.07,17.07,0,0,1,415.83,337Z"/><path class="cls-3" d="M415.83,381.55h82.89v-6.88H415.83V360.91H552.94v13.76H512.32v6.88h40.62v13.6H415.83Z"/><path class="cls-4" d="M175.14,148.94,19.21,160.68V147.45l82.71-6.33L19.21,135V121.74l155.93,11.74Z"/><path class="cls-4" d="M175.14,112.43H19.21V96.78H175.14Z"/><path class="cls-4" d="M175.14,64,96.52,71.82h78.62V87.47H19.21V71.82H80.87L19.21,64.18V48.53L88.69,57.1l86.45-8.57Z"/><path class="cls-4" d="M175.14,39.22H19.21V23.57H175.14Z"/><path class="cls-4" d="M198.12,160.52V37.17H187.8V23.41H222V37.17H211.72V160.52Z"/><path class="cls-4" d="M246.94,160.52a17.14,17.14,0,0,1-17-15.89V39.46c.65-9.33,7.86-15.56,17.36-16a17.14,17.14,0,0,1,16.88,16.05V144.63a17.08,17.08,0,0,1-15.73,15.89Zm3.6-17V40.61a3.46,3.46,0,0,0-3.44-3.44,3.35,3.35,0,0,0-3.44,3.44V143.48a3.46,3.46,0,0,0,3.44,3.44A3.58,3.58,0,0,0,250.54,143.48Z"/><path class="cls-4" d="M272.32,143.48V23.41h13.76V143.48a3.47,3.47,0,0,0,3.44,3.44,3.57,3.57,0,0,0,3.44-3.44V23.41h13.6V143.48a17.12,17.12,0,0,1-34.24,0Z"/><path class="cls-4" d="M331.79,160.52a17.14,17.14,0,0,1-17-15.89V39.46c.65-9.33,7.86-15.56,17.36-16A17.14,17.14,0,0,1,349,39.46V57.65h-13.6v-17a3.63,3.63,0,0,0-3.6-3.6,3.58,3.58,0,0,0-3.28,3.6V143.48a3.43,3.43,0,0,0,3.28,3.44,3.5,3.5,0,0,0,3.6-3.44V77.79H349v66.84a17.08,17.08,0,0,1-15.73,15.89Z"/><path class="cls-4" d="M377.81,160.52V77.63h-6.88v82.89H357.17V23.41h13.76V64h6.88V23.41h13.6V160.52Z"/><path class="cls-3" d="M35.47,330.51,23.74,174.58H37L43.3,257.3l6.14-82.72H62.67L50.94,330.51Z"/><path class="cls-3" d="M72,330.51V174.58H87.63V330.51Z"/><path class="cls-3" d="M120.42,330.51,112.6,251.9v78.61H97V174.58H112.6v61.67l7.63-61.67h15.65l-8.57,69.49,8.57,86.44Z"/><path class="cls-3" d="M145.2,330.51V174.58h15.64V330.51Z"/><path class="cls-3" d="M23.9,353.5H147.24V343.18H161v34.24H147.24V367.1H23.9Z"/><path class="cls-3" d="M23.9,402.31a17.13,17.13,0,0,1,15.89-17H145c9.34.65,15.56,7.86,16.05,17.36A17.12,17.12,0,0,1,145,419.51H39.79A17.05,17.05,0,0,1,23.9,403.79Zm17,3.61H143.8a3.46,3.46,0,0,0,3.44-3.44A3.35,3.35,0,0,0,143.8,399H40.93a3.46,3.46,0,0,0-3.44,3.44A3.58,3.58,0,0,0,40.93,405.92Z"/><path class="cls-3" d="M40.93,427.7H161v13.76H40.93a3.47,3.47,0,0,0-3.44,3.44,3.58,3.58,0,0,0,3.44,3.44H161v13.6H40.93a17.12,17.12,0,0,1,0-34.24Z"/><path class="cls-3" d="M23.9,487.16a17.13,17.13,0,0,1,15.89-17H145c9.34.65,15.56,7.86,16.05,17.36A17.12,17.12,0,0,1,145,504.36H126.77V490.77h17a3.64,3.64,0,0,0,3.61-3.61,3.58,3.58,0,0,0-3.61-3.27H40.93a3.43,3.43,0,0,0-3.44,3.27,3.5,3.5,0,0,0,3.44,3.61h65.69v13.59H39.79A17.05,17.05,0,0,1,23.9,488.64Z"/><path class="cls-3" d="M23.9,533.19h82.88v-6.88H23.9V512.55H161v13.76H120.38v6.88H161v13.6H23.9Z"/></svg>