<svg id="Слой_1" data-name="Слой 1" xmlns="http://www.w3.org/2000/svg" xmlns:xlink="http://www.w3.org/1999/xlink" viewBox="0 0 566.93 566.93"><defs><style>.cls-1{fill:none;}.cls-2{clip-path:url(#clip-path);}.cls-3{fill:#f18f74;}.cls-4{clip-path:url(#clip-path-2);}.cls-5{clip-path:url(#clip-path-3);}.cls-6{fill:#6ec1e0;}.cls-7{clip-path:url(#clip-path-4);}.cls-8{fill:#f8be75;}</style><clipPath id="clip-path"><rect class="cls-1" x="46" y="255" width="301" height="117"/></clipPath><clipPath id="clip-path-2"><rect class="cls-1" x="-594" y="756" width="484" height="165.35"/></clipPath><clipPath id="clip-path-3"><rect class="cls-1" x="48" y="95" width="299" height="114"/></clipPath><clipPath id="clip-path-4"><rect class="cls-1" x="47" y="417" width="301" height="114"/></clipPath></defs><title>vt-logo</title><g class="cls-2"><path d="M107.09,249.76a10.67,10.67,0,0,1-3.34-7.95A11.24,11.24,0,0,1,123,233.9a11.18,11.18,0,0,1,0,15.86,11.08,11.08,0,0,1-15.86,0Zm-2,7.43h19.82v49.48H105.07Z"/><path d="M81.39,257.66h17.5l-12.1,49H61.29l-12.1-49h17.5L74,291.16Z"/><path d="M179.3,257.66l-14.45,20.13,14.45,28.88H162.18l-7.25-15-3.62,5v10H134.87v-49h16.44v16.65l10.87-16.65Z"/><path d="M187.51,249.76a10.67,10.67,0,0,1-3.34-7.95,11.34,11.34,0,0,1,11.29-11.21,11.21,11.21,0,0,1,7.91,19.16,11.08,11.08,0,0,1-15.86,0Zm-2,7.43H205.3v49.48H185.49Z"/><path d="M89.8,317.66v12.95H78.41v36.06H62V330.61H50.59V317.66Z"/><path d="M109.75,365.88c-6.68-2.19-12-6.28-15-12.87a28.62,28.62,0,0,1,0-22.2c3-6.63,8.3-10.63,15-12.87a35,35,0,0,1,21.23,0c6.63,2.24,12,6.24,15,12.87a28.62,28.62,0,0,1,0,22.2c-3,6.59-8.35,10.68-15,12.87A35,35,0,0,1,109.75,365.88Zm10.64-15a7.68,7.68,0,0,0,5.75-2.38,10.63,10.63,0,0,0,0-13.18,8.17,8.17,0,0,0-11.51,0,10.48,10.48,0,0,0,0,13.18A7.64,7.64,0,0,0,120.39,350.9Z"/><path d="M172.07,317.19v24.74c0,6,1.89,9,6.24,9s6.72-3,6.72-9V317.19h19.78v49.48h-18.9l-.88-5c-2.11,3.69-7.16,5.84-13.67,5.84-6.85,0-11.73-2.15-14.67-6.5s-4.44-10.68-4.44-19.12V317.19Z"/><path d="M244.27,344.88l18.15,7.2a22.46,22.46,0,0,1-9.89,11.3,30.6,30.6,0,0,1-15.82,4.17c-7.51,0-14.37-2.24-19.51-6.46s-8.35-10.94-8.35-19.16,3.21-15,8.35-19.2a32.49,32.49,0,0,1,35.37-2.29,22.49,22.49,0,0,1,9.85,11.3l-18.15,7.2c-1.06-4.39-3.91-6.41-7.56-6.41-4.7,0-8.09,3.29-8.09,9.36s3.39,9.45,8.09,9.45C240.36,351.34,243.17,349.27,244.27,344.88Z"/><path d="M296.29,317.66h16.44v49H296.25V350.06H283v16.61H266.58v-49H283v19.45h13.3Z"/><circle class="cls-3" cx="332.7" cy="356.59" r="11"/></g><g class="cls-4"><image width="564" height="1117" transform="translate(-585.39 492.47) scale(1.34)" xlink:href="../../ae67e4a945a2f4ef5c87fbcd11ea81d7.jpg"/></g><g class="cls-5"><path d="M107.09,88.26a10.67,10.67,0,0,1-3.34-8A11.24,11.24,0,0,1,123,72.4a11.18,11.18,0,0,1,0,15.86,11.08,11.08,0,0,1-15.86,0Zm-2,7.43h19.82v49.48H105.07Z"/><path d="M81.39,96.16h17.5l-12.1,49H61.29l-12.1-49h17.5L74,129.66Z"/><path d="M179.3,96.16l-14.45,20.13,14.45,28.88H162.18l-7.25-15-3.62,5v10H134.87v-49h16.44v16.65l10.87-16.65Z"/><path d="M187.51,88.26a10.67,10.67,0,0,1-3.34-8A11.34,11.34,0,0,1,195.46,69.1a11.21,11.21,0,0,1,7.91,19.16,11.08,11.08,0,0,1-15.86,0Zm-2,7.43H205.3v49.48H185.49Z"/><path d="M89.8,156.16v13H78.41v36.06H62V169.11H50.59v-13Z"/><path d="M109.75,204.38c-6.68-2.19-12-6.28-15-12.87a28.62,28.62,0,0,1,0-22.2c3-6.63,8.3-10.63,15-12.87a35,35,0,0,1,21.23,0c6.63,2.24,12,6.24,15,12.87a28.62,28.62,0,0,1,0,22.2c-3,6.59-8.35,10.68-15,12.87A35,35,0,0,1,109.75,204.38Zm10.64-15a7.68,7.68,0,0,0,5.75-2.38,10.63,10.63,0,0,0,0-13.18,8.17,8.17,0,0,0-11.51,0,10.48,10.48,0,0,0,0,13.18A7.64,7.64,0,0,0,120.39,189.4Z"/><path d="M172.07,155.69v24.74c0,6,1.89,9,6.24,9s6.72-3,6.72-9V155.69h19.78v49.48h-18.9l-.88-5c-2.11,3.69-7.16,5.84-13.67,5.84-6.85,0-11.73-2.15-14.67-6.5s-4.44-10.68-4.44-19.12V155.69Z"/><path d="M244.27,183.38l18.15,7.2a22.46,22.46,0,0,1-9.89,11.3,30.6,30.6,0,0,1-15.82,4.17c-7.51,0-14.37-2.24-19.51-6.46s-8.35-10.94-8.35-19.16,3.21-15,8.35-19.2a32.49,32.49,0,0,1,35.37-2.29,22.49,22.49,0,0,1,9.85,11.3l-18.15,7.2c-1.06-4.39-3.91-6.41-7.56-6.41-4.7,0-8.09,3.29-8.09,9.36s3.39,9.45,8.09,9.45C240.36,189.84,243.17,187.77,244.27,183.38Z"/><path d="M296.29,156.16h16.44v49H296.25V188.56H283v16.61H266.58v-49H283v19.45h13.3Z"/><circle class="cls-6" cx="332.7" cy="195.09" r="11"/></g><g class="cls-7"><path d="M107.09,411.26a10.67,10.67,0,0,1-3.34-7.95A11.24,11.24,0,0,1,123,395.4a11.18,11.18,0,0,1,0,15.86,11.08,11.08,0,0,1-15.86,0Zm-2,7.43h19.82v49.48H105.07Z"/><path d="M81.39,419.16h17.5l-12.1,49H61.29l-12.1-49h17.5L74,452.66Z"/><path d="M179.3,419.16l-14.45,20.13,14.45,28.88H162.18l-7.25-15-3.62,5v10H134.87v-49h16.44v16.65l10.87-16.65Z"/><path d="M187.51,411.26a10.67,10.67,0,0,1-3.34-7.95,11.34,11.34,0,0,1,11.29-11.21,11.21,11.21,0,0,1,7.91,19.16,11.08,11.08,0,0,1-15.86,0Zm-2,7.43H205.3v49.48H185.49Z"/><path d="M89.8,479.16v12.95H78.41v36.06H62V492.11H50.59V479.16Z"/><path d="M109.75,527.38c-6.68-2.19-12-6.28-15-12.87a28.62,28.62,0,0,1,0-22.2c3-6.63,8.3-10.63,15-12.87a35,35,0,0,1,21.23,0c6.63,2.24,12,6.24,15,12.87a28.62,28.62,0,0,1,0,22.2c-3,6.59-8.35,10.68-15,12.87A35,35,0,0,1,109.75,527.38Zm10.64-15a7.68,7.68,0,0,0,5.75-2.38,10.63,10.63,0,0,0,0-13.18,8.17,8.17,0,0,0-11.51,0,10.48,10.48,0,0,0,0,13.18A7.64,7.64,0,0,0,120.39,512.4Z"/><path d="M172.07,478.69v24.74c0,6,1.89,9,6.24,9s6.72-3,6.72-9V478.69h19.78v49.48h-18.9l-.88-5c-2.11,3.69-7.16,5.84-13.67,5.84-6.85,0-11.73-2.15-14.67-6.5s-4.44-10.68-4.44-19.12V478.69Z"/><path d="M244.27,506.38l18.15,7.2a22.46,22.46,0,0,1-9.89,11.3,30.6,30.6,0,0,1-15.82,4.17c-7.51,0-14.37-2.24-19.51-6.46s-8.35-10.94-8.35-19.16,3.21-15,8.35-19.2a32.49,32.49,0,0,1,35.37-2.29,22.49,22.49,0,0,1,9.85,11.3l-18.15,7.2c-1.06-4.39-3.91-6.41-7.56-6.41-4.7,0-8.09,3.29-8.09,9.36s3.39,9.45,8.09,9.45C240.36,512.84,243.17,510.77,244.27,506.38Z"/><path d="M296.29,479.16h16.44v49H296.25V511.56H283v16.61H266.58v-49H283v19.45h13.3Z"/><circle class="cls-8" cx="332.7" cy="518.09" r="11"/></g></svg>