<svg id="Слой_1" data-name="Слой 1" xmlns="http://www.w3.org/2000/svg" viewBox="0 0 566.93 566.93"><defs><style>.cls-1{fill:#d88a80;}</style></defs><title>vt-logo</title><path d="M118.86,201.73h11l-26.28,72.38H93.09L66.82,201.73H77.59l20.84,61.81Z"/><path d="M151,274.11h-9.87V201.73H151Z"/><path d="M170.71,274.11H161V201.73h9.67V237l35.13-35.23h13.39L189.13,231,220,274.11H207.45L182.08,238l-11.37,10.77Z"/><path d="M239.56,274.11h-9.87V201.73h9.87Z"/><path d="M161.79,299.91h58.79v8.85H196v63.52h-9.87V308.76H161.79Z"/><path d="M294.36,349.13a41.18,41.18,0,0,1-5.84,12.28,28.88,28.88,0,0,1-11,9.36A36.48,36.48,0,0,1,261,374.3a36.09,36.09,0,0,1-16.51-3.53,28.71,28.71,0,0,1-11-9.36A42.86,42.86,0,0,1,227.62,349a48.06,48.06,0,0,1-1.81-12.89,47.28,47.28,0,0,1,1.81-12.88A37.25,37.25,0,0,1,233.56,311a30,30,0,0,1,11.08-9.26,35.79,35.79,0,0,1,16.4-3.53,35.43,35.43,0,0,1,16.41,3.53,29.18,29.18,0,0,1,11,9.26,40,40,0,0,1,5.94,12.28,47.28,47.28,0,0,1,1.81,12.88A48.39,48.39,0,0,1,294.36,349.13Zm-11.17-28.19A23.09,23.09,0,0,0,261,306.85a23.56,23.56,0,0,0-13.49,3.73,24.68,24.68,0,0,0-8.65,10.47,36,36,0,0,0-3,15.09,37.1,37.1,0,0,0,3,15.2,24.23,24.23,0,0,0,8.76,10.57A23.36,23.36,0,0,0,261,365.64a23.85,23.85,0,0,0,13.49-3.73,24.51,24.51,0,0,0,8.66-10.57,39.76,39.76,0,0,0,0-30.4Z"/><path d="M308,299.91h9.87v47.21a20.68,20.68,0,0,0,2.11,9.56,13.79,13.79,0,0,0,6.14,6.54,20.19,20.19,0,0,0,10.17,2.42,21.08,21.08,0,0,0,10-2.32,15.4,15.4,0,0,0,6.65-6.44,20,20,0,0,0,2.31-9.56V299.91H365v48.62a25,25,0,0,1-3.63,13.28A24.22,24.22,0,0,1,350.83,371a34.55,34.55,0,0,1-15.5,3.33,30.81,30.81,0,0,1-13.39-3,23,23,0,0,1-10.16-8.76A24.55,24.55,0,0,1,308,348.93Z"/><path d="M377.11,335.54v-1.11a43.31,43.31,0,0,1,3.42-17.11,30.57,30.57,0,0,1,10.77-13.39A32.81,32.81,0,0,1,400,299.5,33.74,33.74,0,0,1,410.22,298a43,43,0,0,1,12.49,1.92,26.4,26.4,0,0,1,11.57,7.45q5,5.33,6.44,14.39h-9.46q-1.61-7.46-6.94-11.17a21.27,21.27,0,0,0-12.69-3.73l-2.82.2-2.71.31a20.65,20.65,0,0,0-9.87,4.83,23.38,23.38,0,0,0-6.54,9.66,38,38,0,0,0-2.22,13.69A47.1,47.1,0,0,0,389.19,349a28.37,28.37,0,0,0,4.83,9.56A22.49,22.49,0,0,0,401,364a26.94,26.94,0,0,0,4,1.31,19.4,19.4,0,0,0,4.23.5l.4-.2q9.57,0,15.3-5.34,5.54-5.24,6.95-14.59h9.66a34.13,34.13,0,0,1-4.93,14.49,29.06,29.06,0,0,1-10.77,10.17,36.62,36.62,0,0,1-7.25,2.92,29.72,29.72,0,0,1-7.95,1,34.66,34.66,0,0,1-14.6-2.92,27.31,27.31,0,0,1-10.37-8.06,34.33,34.33,0,0,1-5.94-11.77,50.79,50.79,0,0,1-1.91-7.45,44.35,44.35,0,0,1-.6-7.45Z"/><path d="M500.92,299.91h9.77v72.37h-9.77V338.66H463.17v33.62h-9.86V299.91h9.86V330h37.75Z"/><ellipse class="cls-1" cx="373.76" cy="237.82" rx="99.91" ry="38.45"/></svg>