<svg id="Слой_1" data-name="Слой 1" xmlns="http://www.w3.org/2000/svg" xmlns:xlink="http://www.w3.org/1999/xlink" viewBox="0 0 566.93 566.93"><defs><style>.cls-1{fill:none;}.cls-2{fill:#467781;}.cls-3{fill:#fea512;}.cls-4{fill:#d88a80;}.cls-5{clip-path:url(#clip-path);}</style><clipPath id="clip-path"><rect class="cls-1" x="-594" y="75.69" width="484" height="165.35"/></clipPath></defs><title>vt-logo</title><path d="M103.43,108.75h5.82l-13.94,38.4H89.76l-13.94-38.4h5.72l11,32.79Z"/><path d="M120.46,147.15h-5.23v-38.4h5.23Z"/><path d="M130.93,147.15h-5.12v-38.4h5.12v18.69l18.64-18.69h7.1l-16,15.54,16.4,22.86h-6.68L137,128l-6,5.72Z"/><path d="M167.46,147.15h-5.24v-38.4h5.24Z"/><path d="M126.2,160.83h31.19v4.7h-13v33.7h-5.23v-33.7H126.2Z"/><path d="M196.53,187a22,22,0,0,1-3.1,6.51,15.27,15.27,0,0,1-5.82,5,19.41,19.41,0,0,1-8.75,1.87,19.19,19.19,0,0,1-8.76-1.87,15.26,15.26,0,0,1-5.82-5,22.74,22.74,0,0,1-3.15-6.57,25.54,25.54,0,0,1-1-6.83,25.22,25.22,0,0,1,1-6.84,19.54,19.54,0,0,1,3.15-6.51,16,16,0,0,1,5.87-4.92,19.12,19.12,0,0,1,8.71-1.87,18.87,18.87,0,0,1,8.7,1.87,15.5,15.5,0,0,1,5.82,4.92,21.06,21.06,0,0,1,3.15,6.51,25.21,25.21,0,0,1,1,6.84A25.84,25.84,0,0,1,196.53,187Zm-5.93-15a13.27,13.27,0,0,0-18.9-5.5,13.18,13.18,0,0,0-4.59,5.56,19.13,19.13,0,0,0-1.6,8,19.73,19.73,0,0,0,1.6,8.06,12.91,12.91,0,0,0,4.64,5.61,12.5,12.5,0,0,0,7.11,2,12.73,12.73,0,0,0,7.15-2,13,13,0,0,0,4.59-5.61,21,21,0,0,0,0-16.13Z"/><path d="M203.74,160.83H209v25A11,11,0,0,0,210.1,191a7.31,7.31,0,0,0,3.25,3.47,10.68,10.68,0,0,0,5.4,1.28,11.2,11.2,0,0,0,5.28-1.23,8.14,8.14,0,0,0,3.53-3.41,10.57,10.57,0,0,0,1.23-5.08V160.83H234v25.79a13.28,13.28,0,0,1-1.92,7,12.9,12.9,0,0,1-5.61,4.86,18.33,18.33,0,0,1-8.22,1.77,16.33,16.33,0,0,1-7.11-1.61,12.12,12.12,0,0,1-5.39-4.64,13.06,13.06,0,0,1-2-7.21Z"/><path d="M240.43,179.74v-.59a23,23,0,0,1,1.81-9.08A16.26,16.26,0,0,1,248,163a17,17,0,0,1,4.59-2.35,17.64,17.64,0,0,1,5.45-.8,23.1,23.1,0,0,1,6.62,1,13.74,13.74,0,0,1,9.56,11.59h-5a9.29,9.29,0,0,0-3.69-5.93,11.34,11.34,0,0,0-6.73-2l-1.49.1-1.44.16a11,11,0,0,0-5.24,2.57,12.54,12.54,0,0,0-3.47,5.12,20.26,20.26,0,0,0-1.17,7.27,25.33,25.33,0,0,0,.9,7.15A14.94,14.94,0,0,0,249.4,192a11.94,11.94,0,0,0,3.68,2.89,13.18,13.18,0,0,0,2.14.69,10,10,0,0,0,2.24.27l.22-.11a11.42,11.42,0,0,0,8.11-2.83,12.91,12.91,0,0,0,3.69-7.74h5.12a18.17,18.17,0,0,1-2.61,7.69,15.35,15.35,0,0,1-5.72,5.39,19,19,0,0,1-3.84,1.55,15.57,15.57,0,0,1-4.22.54,18.34,18.34,0,0,1-7.74-1.55,14.42,14.42,0,0,1-5.5-4.28,18,18,0,0,1-3.15-6.24,25.71,25.71,0,0,1-1-4,23.67,23.67,0,0,1-.32-4Z"/><path d="M306.11,160.83h5.18v38.4h-5.18V181.39h-20v17.84h-5.23v-38.4h5.23v16h20Z"/><ellipse class="cls-2" cx="238.65" cy="127.89" rx="53" ry="20.4"/><path d="M103.43,240.25h5.82l-13.94,38.4H89.76l-13.94-38.4h5.72l11,32.79Z"/><path d="M120.46,278.65h-5.23v-38.4h5.23Z"/><path d="M130.93,278.65h-5.12v-38.4h5.12v18.69l18.64-18.69h7.1l-16,15.54,16.4,22.86h-6.68L137,259.47l-6,5.72Z"/><path d="M167.46,278.65h-5.24v-38.4h5.24Z"/><path d="M126.2,292.33h31.19V297h-13v33.7h-5.23V297H126.2Z"/><path d="M196.53,318.45a22,22,0,0,1-3.1,6.51,15.27,15.27,0,0,1-5.82,5,19.41,19.41,0,0,1-8.75,1.87,19.19,19.19,0,0,1-8.76-1.87,15.26,15.26,0,0,1-5.82-5,22.74,22.74,0,0,1-3.15-6.57,25.54,25.54,0,0,1-1-6.83,25.22,25.22,0,0,1,1-6.84,19.54,19.54,0,0,1,3.15-6.51,16,16,0,0,1,5.87-4.92,19.12,19.12,0,0,1,8.71-1.87,18.87,18.87,0,0,1,8.7,1.87,15.5,15.5,0,0,1,5.82,4.92,21.06,21.06,0,0,1,3.15,6.51,25.21,25.21,0,0,1,1,6.84A25.84,25.84,0,0,1,196.53,318.45Zm-5.93-15a13.27,13.27,0,0,0-18.9-5.5,13.18,13.18,0,0,0-4.59,5.56,19.13,19.13,0,0,0-1.6,8,19.73,19.73,0,0,0,1.6,8.06,12.91,12.91,0,0,0,4.64,5.61,12.5,12.5,0,0,0,7.11,2,12.73,12.73,0,0,0,7.15-2,13,13,0,0,0,4.59-5.61,21,21,0,0,0,0-16.13Z"/><path d="M203.74,292.33H209v25.05a11,11,0,0,0,1.13,5.07,7.31,7.31,0,0,0,3.25,3.47,10.68,10.68,0,0,0,5.4,1.28A11.2,11.2,0,0,0,224,326a8.14,8.14,0,0,0,3.53-3.41,10.57,10.57,0,0,0,1.23-5.08V292.33H234v25.79a13.28,13.28,0,0,1-1.92,7.05,12.9,12.9,0,0,1-5.61,4.86,18.33,18.33,0,0,1-8.22,1.77,16.33,16.33,0,0,1-7.11-1.61,12.12,12.12,0,0,1-5.39-4.64,13.06,13.06,0,0,1-2-7.21Z"/><path d="M240.43,311.24v-.59a23,23,0,0,1,1.81-9.08,16.26,16.26,0,0,1,5.72-7.1,17,17,0,0,1,4.59-2.35,17.64,17.64,0,0,1,5.45-.8,23.1,23.1,0,0,1,6.62,1,13.74,13.74,0,0,1,9.56,11.59h-5a9.29,9.29,0,0,0-3.69-5.93,11.34,11.34,0,0,0-6.73-2l-1.49.1-1.44.16a11,11,0,0,0-5.24,2.57A12.54,12.54,0,0,0,247.1,304a20.26,20.26,0,0,0-1.17,7.27,25.33,25.33,0,0,0,.9,7.15,14.94,14.94,0,0,0,2.57,5.07,11.94,11.94,0,0,0,3.68,2.89,13.18,13.18,0,0,0,2.14.69,10,10,0,0,0,2.24.27l.22-.11a11.42,11.42,0,0,0,8.11-2.83,12.91,12.91,0,0,0,3.69-7.74h5.12a18.17,18.17,0,0,1-2.61,7.69,15.35,15.35,0,0,1-5.72,5.39,19,19,0,0,1-3.84,1.55,15.57,15.57,0,0,1-4.22.54,18.34,18.34,0,0,1-7.74-1.55A14.42,14.42,0,0,1,245,326a18,18,0,0,1-3.15-6.24,25.71,25.71,0,0,1-1-4,23.67,23.67,0,0,1-.32-3.95Z"/><path d="M306.11,292.33h5.18v38.4h-5.18V312.89h-20v17.84h-5.23v-38.4h5.23v16h20Z"/><ellipse class="cls-3" cx="238.65" cy="259.39" rx="53" ry="20.4"/><path d="M103.43,371.75h5.82l-13.94,38.4H89.76l-13.94-38.4h5.72l11,32.79Z"/><path d="M120.46,410.15h-5.23v-38.4h5.23Z"/><path d="M130.93,410.15h-5.12v-38.4h5.12v18.69l18.64-18.69h7.1l-16,15.54,16.4,22.86h-6.68L137,391l-6,5.72Z"/><path d="M167.46,410.15h-5.24v-38.4h5.24Z"/><path d="M126.2,423.83h31.19v4.7h-13v33.7h-5.23v-33.7H126.2Z"/><path d="M196.53,450a22,22,0,0,1-3.1,6.51,15.27,15.27,0,0,1-5.82,5,19.41,19.41,0,0,1-8.75,1.87,19.19,19.19,0,0,1-8.76-1.87,15.26,15.26,0,0,1-5.82-5,22.74,22.74,0,0,1-3.15-6.57,25.54,25.54,0,0,1-1-6.83,25.22,25.22,0,0,1,1-6.84,19.54,19.54,0,0,1,3.15-6.51,16,16,0,0,1,5.87-4.92,19.12,19.12,0,0,1,8.71-1.87,18.87,18.87,0,0,1,8.7,1.87,15.5,15.5,0,0,1,5.82,4.92,21.06,21.06,0,0,1,3.15,6.51,25.21,25.21,0,0,1,1,6.84A25.84,25.84,0,0,1,196.53,450Zm-5.93-15a13.27,13.27,0,0,0-18.9-5.5,13.18,13.18,0,0,0-4.59,5.56,19.13,19.13,0,0,0-1.6,8,19.73,19.73,0,0,0,1.6,8.06,12.91,12.91,0,0,0,4.64,5.61,12.5,12.5,0,0,0,7.11,2,12.73,12.73,0,0,0,7.15-2,13,13,0,0,0,4.59-5.61,21,21,0,0,0,0-16.13Z"/><path d="M203.74,423.83H209v25.05A11,11,0,0,0,210.1,454a7.31,7.31,0,0,0,3.25,3.47,10.68,10.68,0,0,0,5.4,1.28,11.2,11.2,0,0,0,5.28-1.23,8.14,8.14,0,0,0,3.53-3.41,10.57,10.57,0,0,0,1.23-5.08V423.83H234v25.79a13.28,13.28,0,0,1-1.92,7.05,12.9,12.9,0,0,1-5.61,4.86,18.33,18.33,0,0,1-8.22,1.77,16.33,16.33,0,0,1-7.11-1.61,12.12,12.12,0,0,1-5.39-4.64,13.06,13.06,0,0,1-2-7.21Z"/><path d="M240.43,442.74v-.59a23,23,0,0,1,1.81-9.08A16.26,16.26,0,0,1,248,426a17,17,0,0,1,4.59-2.35,17.64,17.64,0,0,1,5.45-.8,23.1,23.1,0,0,1,6.62,1,13.74,13.74,0,0,1,9.56,11.59h-5a9.29,9.29,0,0,0-3.69-5.93,11.34,11.34,0,0,0-6.73-2l-1.49.1-1.44.16a11,11,0,0,0-5.24,2.57,12.54,12.54,0,0,0-3.47,5.12,20.26,20.26,0,0,0-1.17,7.27,25.33,25.33,0,0,0,.9,7.15A14.94,14.94,0,0,0,249.4,455a11.94,11.94,0,0,0,3.68,2.89,13.18,13.18,0,0,0,2.14.69,10,10,0,0,0,2.24.27l.22-.11a11.42,11.42,0,0,0,8.11-2.83,12.91,12.91,0,0,0,3.69-7.74h5.12a18.17,18.17,0,0,1-2.61,7.69,15.35,15.35,0,0,1-5.72,5.39,19,19,0,0,1-3.84,1.55,15.57,15.57,0,0,1-4.22.54,18.34,18.34,0,0,1-7.74-1.55,14.42,14.42,0,0,1-5.5-4.28,18,18,0,0,1-3.15-6.24,25.71,25.71,0,0,1-1-4,23.67,23.67,0,0,1-.32-3.95Z"/><path d="M306.11,423.83h5.18v38.4h-5.18V444.39h-20v17.84h-5.23v-38.4h5.23v16h20Z"/><ellipse class="cls-4" cx="238.65" cy="390.89" rx="53" ry="20.4"/><g class="cls-5"><image width="564" height="1117" transform="translate(-585.39 -187.85) scale(1.34)" xlink:href="../../ae67e4a945a2f4ef5c87fbcd11ea81d7.jpg"/></g></svg>