<svg id="Слой_1" data-name="Слой 1" xmlns="http://www.w3.org/2000/svg" xmlns:xlink="http://www.w3.org/1999/xlink" viewBox="0 0 566.93 566.93"><defs><style>.cls-1{fill:none;}.cls-2{clip-path:url(#clip-path);}.cls-3{clip-path:url(#clip-path-2);}.cls-4{fill:#f8be75;}</style><clipPath id="clip-path"><rect class="cls-1" x="-594" y="-604.63" width="484" height="165.35"/></clipPath><clipPath id="clip-path-2"><rect class="cls-1" x="29" y="184.57" width="512" height="193.91"/></clipPath></defs><title>vt-logo</title><g class="cls-2"><image width="564" height="1117" transform="translate(-585.39 -868.16) scale(1.34)" xlink:href="../../ae67e4a945a2f4ef5c87fbcd11ea81d7.jpg"/></g><g class="cls-3"><path d="M131.21,174.82a18.87,18.87,0,0,1,0-27,19.1,19.1,0,0,1,32.59,13.46,18.64,18.64,0,0,1-5.6,13.53,18.87,18.87,0,0,1-27,0Zm-3.44,12.63h33.72v84.17H127.77Z"/><path d="M87.49,188.25h29.77L96.68,271.62H53.31L32.73,188.25H62.49l12.5,57Z"/><path d="M254.05,188.25l-24.59,34.24,24.59,49.13H224.92L212.6,246.15l-6.17,8.49v17h-28V188.25h28v28.31l18.49-28.31Z"/><path d="M268,174.82a18.87,18.87,0,0,1,0-27,18.39,18.39,0,0,1,13.53-5.61A19.09,19.09,0,0,1,295,174.82a18.87,18.87,0,0,1-27,0Zm-3.44,12.63h33.72v84.17H264.56Z"/><path d="M101.8,290.31v22H82.44v61.34h-28V312.34H35.11v-22Z"/><path d="M135.74,372.33c-11.36-3.73-20.41-10.69-25.49-21.9a48.66,48.66,0,0,1,0-37.75c5.08-11.29,14.13-18.09,25.49-21.9a59.51,59.51,0,0,1,36.11,0c11.28,3.81,20.33,10.61,25.49,21.9a48.66,48.66,0,0,1,0,37.75c-5.16,11.21-14.21,18.17-25.49,21.9A59.51,59.51,0,0,1,135.74,372.33Zm18.09-25.49a13.12,13.12,0,0,0,9.79-4c2.62-2.69,3.89-6.43,3.89-11.22s-1.27-8.52-3.89-11.21a13.88,13.88,0,0,0-19.58,0c-2.62,2.69-4,6.43-4,11.21s1.34,8.53,4,11.22A13,13,0,0,0,153.83,346.84Z"/><path d="M241.74,289.51v42.08c0,10.17,3.21,15.25,10.61,15.25q11.45,0,11.44-15.25V289.51h33.64v84.17H265.28l-1.49-8.45c-3.59,6.28-12.19,9.94-23.25,9.94-11.66,0-20-3.66-25-11.06S208,346,208,331.59V289.51Z"/><path d="M364.55,336.6l30.88,12.26a38.21,38.21,0,0,1-16.82,19.21,52.07,52.07,0,0,1-26.91,7.1c-12.79,0-24.45-3.81-33.19-11s-14.21-18.62-14.21-32.6,5.46-25.56,14.21-32.66,20.4-11,33.19-11a52.32,52.32,0,0,1,27,7.1,38.34,38.34,0,0,1,16.75,19.21l-30.88,12.26c-1.79-7.47-6.65-10.91-12.85-10.91-8,0-13.76,5.6-13.76,15.92s5.76,16.07,13.76,16.07C357.9,347.59,362.68,344.08,364.55,336.6Z"/><path d="M453,290.31h28v83.37H453V345.42h-22.5v28.26h-28V290.31h27.91v33.08H453Z"/><circle class="cls-4" cx="514.97" cy="356.52" r="18.71"/></g></svg>