<?xml version="1.0" standalone="no"?>
<!DOCTYPE svg PUBLIC "-//W3C//DTD SVG 20010904//EN"
 "http://www.w3.org/TR/2001/REC-SVG-20010904/DTD/svg10.dtd">
<svg version="1.0" xmlns="http://www.w3.org/2000/svg"
 width="2363.000000pt" height="2363.000000pt" viewBox="0 0 2363.000000 2363.000000"
 preserveAspectRatio="xMidYMid meet">
<metadata>
Created by potrace 1.11, written by Peter Selinger 2001-2013
</metadata>
<g transform="translate(0.000000,2363.000000) scale(0.100000,-0.100000)"
fill="#000000" stroke="none">
<path d="M5330 14060 l0 -1760 705 0 705 0 0 1760 0 1760 -705 0 -705 0 0
-1760z"/>
<path d="M11030 14060 l0 -1760 705 0 705 0 0 1760 0 1760 -705 0 -705 0 0
-1760z"/>
<path d="M1370 15778 c-1 -7 192 -793 427 -1745 l427 -1733 907 0 c856 0 908
1 913 18 2 9 194 787 426 1727 231 941 423 1718 426 1728 5 16 -27 17 -622 15
l-628 -3 -255 -1167 c-141 -641 -259 -1161 -262 -1155 -4 7 -121 533 -260
1170 l-254 1157 -622 0 c-492 0 -623 -3 -623 -12z"/>
<path d="M7440 14045 l0 -1745 585 0 585 0 0 353 0 354 127 175 126 176 256
-529 256 -529 613 0 c336 0 612 2 612 5 0 3 -230 466 -512 1029 l-512 1023
505 704 c278 387 509 710 513 717 6 9 -118 12 -606 12 l-614 0 -379 -582 -380
-581 -3 581 -2 582 -585 0 -585 0 0 -1745z"/>
<path d="M6180 11624 c-318 -38 -545 -100 -780 -212 -467 -223 -785 -612 -906
-1107 -54 -222 -70 -546 -39 -780 79 -592 410 -1054 940 -1310 655 -317 1533
-294 2146 56 440 252 725 655 820 1160 27 145 37 448 20 610 -32 309 -138 600
-304 836 -81 115 -258 291 -377 375 -176 124 -436 244 -655 301 -212 56 -322
69 -585 72 -135 2 -261 1 -280 -1z m427 -1216 c192 -68 325 -233 363 -452 15
-86 12 -225 -5 -314 -77 -385 -471 -572 -825 -392 -74 38 -182 154 -223 240
-89 187 -90 450 -2 638 66 140 210 259 361 297 90 22 241 14 331 -17z"/>
<path d="M14330 11614 c-413 -58 -780 -211 -1067 -445 -413 -338 -635 -943
-573 -1560 47 -466 233 -852 542 -1126 220 -195 565 -365 879 -434 239 -52
541 -72 769 -50 604 58 1128 337 1433 763 55 77 186 323 176 332 -2 2 -290
117 -639 256 -349 139 -640 254 -646 256 -5 3 -18 -21 -28 -53 -42 -135 -124
-254 -218 -316 -98 -64 -158 -81 -293 -81 -101 -1 -131 3 -188 22 -140 49
-240 139 -307 277 -55 115 -75 212 -73 370 1 148 22 246 75 355 40 83 150 195
230 233 161 77 369 75 520 -5 111 -59 221 -207 258 -345 6 -24 15 -43 20 -43
12 0 1273 501 1283 510 5 4 -14 54 -41 111 -242 503 -735 844 -1392 964 -133
25 -572 30 -720 9z"/>
<path d="M8673 10513 c3 -917 6 -1075 20 -1182 64 -470 197 -808 402 -1014
208 -210 472 -309 860 -324 472 -17 830 112 1022 369 l20 27 29 -170 28 -169
673 0 673 0 0 1760 0 1760 -705 0 -704 0 -3 -982 -3 -983 -23 -73 c-62 -202
-169 -310 -336 -341 -206 -38 -374 30 -458 186 -39 71 -67 184 -78 313 -5 63
-10 512 -10 998 l0 882 -706 0 -705 0 4 -1057z"/>
<path d="M1460 11075 l0 -465 405 0 405 0 0 -1280 0 -1280 590 0 590 0 0 1280
0 1280 400 0 400 0 0 465 0 465 -1395 0 -1395 0 0 -465z"/>
<path d="M16770 9795 l0 -1745 590 0 590 0 0 590 0 590 465 0 465 0 0 -590 0
-590 585 0 585 0 0 1745 0 1745 -585 0 -585 0 0 -690 0 -690 -465 0 -465 0 0
690 0 690 -590 0 -590 0 0 -1745z"/>
<path d="M21355 9549 c-255 -33 -485 -201 -596 -434 -51 -107 -69 -179 -76
-305 -21 -388 239 -726 620 -807 89 -18 285 -13 372 11 33 9 96 35 141 57 354
174 519 591 385 970 -40 113 -85 182 -181 280 -131 133 -271 203 -453 228 -87
12 -124 12 -212 0z"/>
</g>
</svg>
